<svg version="1.1" xmlns="http://www.w3.org/2000/svg" xmlns:xlink="http://www.w3.org/1999/xlink" width="78.66667" height="78.66667" viewBox="0,0,78.66667,78.66667"><g transform="translate(-280.66666,-140.66666)"><g stroke="none" stroke-width="0" stroke-miterlimit="10"><path d="M288.40437,219.33333c-4.27341,0 -7.73771,-3.46429 -7.73771,-7.7377v-63.19126c0,-4.27341 3.46429,-7.73771 7.73771,-7.73771h63.19126c4.27342,0 7.73771,3.46429 7.73771,7.73771v63.19126c0,4.27342 -3.46429,7.7377 -7.73771,7.7377z" fill="#b5b5b5"/><path d="M288.40437,208c-4.27342,0 -7.73771,-3.46429 -7.73771,-7.73771v-51.85793c0,-4.27342 3.46429,-7.73771 7.73771,-7.73771h63.19126c4.27342,0 7.73771,3.46429 7.73771,7.73771v51.85793c0,4.27342 -3.46429,7.73771 -7.73771,7.73771z" fill="#ffffff"/></g></g></svg>